<svg width="31" height="36" viewBox="0 0 31 36" fill="none" xmlns="http://www.w3.org/2000/svg">
<path d="M10.6934 1.49414C10.82 1.55558 10.9457 1.59975 11.0517 1.67079C11.4247 1.92136 11.785 2.19113 12.1659 2.42922C12.263 2.48971 12.4348 2.49739 12.5487 2.45994C12.8255 2.3697 13.0788 2.19113 13.3595 2.13737C13.7002 2.07209 13.7728 1.87048 13.8091 1.59591C13.8582 1.22917 13.921 0.863394 13.974 0.496657C14.0231 0.160643 14.1998 -0.00832498 14.565 0.00031541C15.1402 0.013756 15.7155 -0.000644638 16.2907 0.00511562C16.701 0.00895579 16.8237 0.123201 16.8885 0.529299C16.9504 0.919076 17.0201 1.30789 17.0682 1.69863C17.0956 1.9252 17.1771 2.06345 17.4264 2.11145C17.6149 2.14793 17.8152 2.21033 17.9693 2.31786C18.3835 2.60683 18.7144 2.49355 19.0599 2.19497C19.3063 1.98184 19.5919 1.81288 19.8619 1.62663C20.0828 1.47494 20.3036 1.4855 20.495 1.66887C20.9505 2.10377 21.4021 2.54251 21.8448 2.99085C22.0441 3.19246 22.0215 3.41999 21.8556 3.64176C21.5955 3.98929 21.3471 4.34547 21.0801 4.6882C20.9554 4.84853 20.9201 4.98006 21.035 5.16919C21.1655 5.38328 21.297 5.61657 21.3393 5.85562C21.408 6.25115 21.6642 6.32604 22.0009 6.36156C22.3523 6.399 22.7008 6.4662 23.0503 6.51997C23.3762 6.56989 23.546 6.7379 23.5391 7.07679C23.5293 7.63938 23.5254 8.20292 23.5411 8.76551C23.5519 9.13992 23.3673 9.31177 23.011 9.36361C22.5643 9.42889 22.1177 9.49706 21.675 9.58538C21.5837 9.60362 21.4826 9.70251 21.4384 9.78987C21.3314 10.003 21.2931 10.2574 21.1586 10.4485C20.8877 10.8344 20.9761 11.133 21.2725 11.4546C21.4924 11.6927 21.6612 11.9768 21.8556 12.238C22.0323 12.4751 22.0343 12.7017 21.8183 12.9148C21.3874 13.3401 20.9564 13.7654 20.5225 14.1878C20.3076 14.3971 20.0749 14.4038 19.8295 14.231C19.4525 13.9651 19.0805 13.6905 18.6908 13.4448C18.5946 13.3843 18.4218 13.3795 18.307 13.4169C18.0302 13.5072 17.7769 13.6732 17.4961 13.7414C17.1997 13.8134 17.0858 13.9728 17.0534 14.2464C17.0093 14.6141 16.9464 14.9799 16.8895 15.3456C16.8267 15.7508 16.702 15.866 16.2917 15.8698C15.7164 15.8756 15.1402 15.8621 14.566 15.8746C14.2018 15.8823 14.0221 15.7133 13.977 15.3773C13.9691 15.3178 13.9691 15.2573 13.9593 15.1988C13.8827 14.7639 13.9338 14.2281 13.6884 13.9219C13.4449 13.6185 12.904 13.5388 12.4839 13.3833C12.3965 13.3507 12.2513 13.39 12.1659 13.4457C11.7997 13.6848 11.4414 13.9363 11.09 14.1955C10.7965 14.4115 10.5422 14.4029 10.2821 14.1379C9.88354 13.7318 9.4742 13.3363 9.06584 12.9398C8.8381 12.718 8.81945 12.4914 9.00988 12.237C9.27689 11.8799 9.54782 11.5237 9.78832 11.1493C9.85507 11.0456 9.85213 10.8728 9.82464 10.7442C9.79323 10.5963 9.6558 10.4667 9.63715 10.3198C9.55077 9.62282 9.06093 9.47498 8.46311 9.44714C8.32961 9.44138 8.19807 9.40393 8.06555 9.38377C7.34797 9.27337 7.31656 9.23977 7.31656 8.55046C7.31656 8.0954 7.3146 7.64034 7.31754 7.18528C7.32049 6.69277 7.43043 6.57661 7.91928 6.50653C8.30605 6.4518 8.68889 6.37404 9.07664 6.32796C9.2975 6.30204 9.41334 6.21275 9.4742 5.9977C9.54291 5.75769 9.62537 5.51 9.7628 5.30359C9.96011 5.0079 9.8914 4.79285 9.67936 4.54516C9.42904 4.25234 9.21505 3.92977 8.98927 3.6168C8.82534 3.39023 8.83712 3.16846 9.04031 2.96877C9.48009 2.53483 9.91888 2.10089 10.3675 1.67559C10.446 1.59591 10.5697 1.56038 10.6934 1.49414ZM10.7729 2.53771C10.4706 2.82572 10.1918 3.09069 9.90023 3.36815C10.1918 3.76464 10.4706 4.1573 10.7651 4.53652C10.9447 4.76789 10.9447 4.97718 10.8024 5.22967C10.6208 5.55224 10.3871 5.88346 10.3341 6.23291C10.2261 6.9539 9.7844 7.17951 9.13161 7.20544C9.11983 7.20544 9.10707 7.20736 9.09529 7.20928C8.18924 7.336 8.20003 7.336 8.20396 8.23652C8.20494 8.48997 8.30507 8.56486 8.53968 8.58982C8.91565 8.63014 9.28671 8.70598 9.66169 8.75686C9.95029 8.79623 10.1015 8.94983 10.1986 9.21961C10.3734 9.70155 10.5707 10.1768 10.7965 10.6376C10.93 10.9102 10.928 11.1224 10.7385 11.3624C10.449 11.7311 10.182 12.117 9.92281 12.4732C10.2232 12.7622 10.5069 13.0358 10.8024 13.3199C11.1783 13.0559 11.5798 12.7823 11.9705 12.4953C12.1953 12.3301 12.4005 12.3282 12.6469 12.4578C12.9786 12.6316 13.3173 12.8505 13.6766 12.9081C14.4158 13.0271 14.618 13.4678 14.6916 14.1168C14.7976 15.0499 14.83 15.0403 15.793 15.0019C16.0011 14.9943 16.0679 14.9127 16.0924 14.7303C16.1464 14.3395 16.222 13.9517 16.275 13.5609C16.3143 13.2739 16.4811 13.1375 16.754 13.0435C17.235 12.8783 17.7141 12.6969 18.1695 12.4742C18.4621 12.3311 18.6849 12.3369 18.9411 12.5298C19.3161 12.813 19.7107 13.0732 20.0955 13.343C20.39 13.0579 20.6668 12.791 20.9613 12.5049C20.6953 12.141 20.4489 11.7704 20.1662 11.4287C19.9247 11.1349 19.9021 10.8766 20.1102 10.5512C20.2899 10.2709 20.4793 9.95788 20.5235 9.64106C20.6266 8.89703 21.1056 8.72518 21.7604 8.65702C22.6556 8.5639 22.6419 8.53798 22.6488 7.66914C22.6507 7.41377 22.5771 7.3072 22.3121 7.28032C21.9243 7.24096 21.5405 7.15839 21.1537 7.10559C20.874 7.06719 20.7434 6.90302 20.6511 6.65341C20.4725 6.17339 20.283 5.69433 20.0563 5.23543C19.9218 4.96182 19.9218 4.75253 20.1122 4.51252C20.4038 4.14482 20.6717 3.75792 20.9319 3.40271C20.6364 3.11277 20.3557 2.83724 20.0651 2.55115C19.6823 2.81804 19.2808 3.09069 18.8881 3.37679C18.6633 3.53999 18.4572 3.54383 18.2108 3.41423C17.879 3.23854 17.5423 3.01101 17.184 2.95821C16.435 2.8478 16.2426 2.40138 16.166 1.75527C16.0561 0.823072 16.0257 0.833633 15.0646 0.871074C14.8555 0.878755 14.7908 0.963238 14.7652 1.14373C14.7073 1.54598 14.6307 1.94536 14.5738 2.34762C14.5365 2.60875 14.3765 2.73068 14.137 2.81804C13.6363 3.00141 13.1367 3.19054 12.6537 3.41423C12.3867 3.53807 12.1786 3.53423 11.945 3.36047C11.5671 3.07917 11.1724 2.81708 10.7729 2.53771Z" fill="#035948"/>
<path d="M3.20407 35.9999C1.44301 36.0047 0.00196529 34.6021 2.01054e-06 32.8807C-0.00196127 31.1603 1.43417 29.7443 3.18836 29.7366C4.9396 29.7289 6.38654 31.144 6.3885 32.8654C6.38948 34.5983 4.972 35.9942 3.20407 35.9999ZM2.81927 32.9374C2.71816 32.8491 2.67398 32.8087 2.62785 32.7713C2.40992 32.5947 2.17728 32.5572 1.98291 32.7809C1.80327 32.9873 1.86511 33.2014 2.05261 33.3857C2.16451 33.4952 2.27544 33.6075 2.38931 33.715C2.68478 33.9934 2.88307 34.0011 3.17069 33.7256C3.55549 33.3588 3.9295 32.9815 4.31136 32.611C4.52044 32.4084 4.59701 32.1876 4.38891 31.9495C4.20141 31.7354 3.97367 31.7652 3.69881 32.0349C3.40825 32.323 3.1275 32.6206 2.81927 32.9374Z" fill="#035948"/>
<path d="M3.20808 21.2682C1.47058 21.2778 0.0128463 19.8771 8.50257e-05 18.1846C-0.0126763 16.4392 1.41266 15.0135 3.18452 15.0011C4.91613 14.9886 6.37779 16.3979 6.38859 18.0905C6.39938 19.8483 4.98877 21.2577 3.20808 21.2682ZM2.83211 18.2038C2.73198 18.1212 2.68585 18.0857 2.64265 18.0482C2.43062 17.8658 2.19601 17.8178 1.99576 18.0319C1.7955 18.245 1.86323 18.4697 2.06545 18.6617C2.17932 18.7702 2.28828 18.8825 2.40313 18.99C2.68094 19.2502 2.88905 19.2588 3.15801 19.0025C3.55165 18.6271 3.93547 18.2431 4.3242 17.8639C4.53427 17.6585 4.602 17.4261 4.37721 17.2053C4.14162 16.973 3.91191 17.0786 3.71362 17.285C3.42208 17.5865 3.13249 17.8908 2.83211 18.2038Z" fill="#035948"/>
<path d="M19.6858 17.7161C23.1745 17.7161 26.6633 17.7161 30.152 17.7161C30.2502 17.7161 30.3749 17.6796 30.4406 17.7247C30.5938 17.8294 30.8186 17.9676 30.8284 18.1049C30.8392 18.2489 30.6536 18.4313 30.5123 18.5504C30.4397 18.6118 30.2767 18.5744 30.155 18.5744C23.1775 18.5753 16.201 18.5753 9.22351 18.5744C9.10179 18.5744 8.93884 18.6128 8.86619 18.5513C8.72582 18.4332 8.54225 18.2518 8.55109 18.1068C8.55992 17.9695 8.78079 17.8303 8.93295 17.7247C8.99773 17.6796 9.12338 17.7161 9.22155 17.7161C12.7083 17.7161 16.1971 17.7161 19.6858 17.7161Z" fill="#035948"/>
<path d="M19.6948 33.3118C16.206 33.3118 12.7173 33.3118 9.22855 33.3108C9.10682 33.3108 8.94485 33.3492 8.87123 33.2887C8.72889 33.1726 8.54336 32.993 8.55023 32.849C8.55711 32.7118 8.77601 32.5697 8.9262 32.4612C8.99001 32.4151 9.11664 32.4497 9.21382 32.4497C16.1913 32.4497 23.1678 32.4497 30.1453 32.4497C30.2435 32.4497 30.3662 32.4151 30.4339 32.4602C30.589 32.5629 30.7892 32.6839 30.8383 32.8375C30.9129 33.0727 30.7313 33.2417 30.4898 33.2983C30.373 33.3252 30.2464 33.3108 30.1237 33.3108C26.6477 33.3118 23.1708 33.3118 19.6948 33.3118Z" fill="#035948"/>
<path d="M19.6951 25.9369C16.2191 25.9369 12.7431 25.9369 9.26712 25.9369C8.71838 25.9369 8.52696 25.8275 8.52206 25.5145C8.51715 25.19 8.7282 25.0652 9.28577 25.0652C16.226 25.0652 23.1651 25.0652 30.1053 25.0652C30.6266 25.0652 30.8474 25.1929 30.8563 25.4972C30.8651 25.8054 30.6472 25.9369 30.124 25.9369C26.647 25.9369 23.171 25.9369 19.6951 25.9369Z" fill="#035948"/>
<path d="M3.21585 22.3875C4.98673 22.3923 6.39342 23.7843 6.38753 25.5268C6.38164 27.2462 4.9347 28.6489 3.17463 28.6402C1.42436 28.6316 -0.00391848 27.2136 8.07665e-06 25.4865C0.00393463 23.7642 1.43713 22.3827 3.21585 22.3875ZM5.50896 25.5018C5.50994 24.2605 4.46842 23.2467 3.19131 23.2477C1.91911 23.2486 0.873666 24.272 0.878574 25.5105C0.883482 26.7413 1.94758 27.7819 3.20015 27.7791C4.45763 27.7771 5.50798 26.7422 5.50896 25.5018Z" fill="#035948"/>
<path d="M15.4323 4.90797C17.16 4.91085 18.5245 6.25107 18.5225 7.94266C18.5205 9.63138 17.1482 10.9697 15.4215 10.9668C13.6958 10.9639 12.3254 9.6189 12.3294 7.9321C12.3333 6.24243 13.7066 4.90413 15.4323 4.90797ZM15.397 10.1018C16.6368 10.1095 17.6292 9.16768 17.639 7.9753C17.6489 6.75701 16.6937 5.78449 15.4765 5.77393C14.2131 5.7624 13.2217 6.70229 13.2158 7.91674C13.2099 9.12543 14.1768 10.0941 15.397 10.1018Z" fill="#035948"/>
<path d="M2.83498 25.5556C3.12555 25.2465 3.39844 24.9431 3.68704 24.6541C3.96092 24.3796 4.21615 24.3575 4.41444 24.5773C4.64905 24.8385 4.52929 25.0564 4.31529 25.2628C3.93245 25.6324 3.55648 26.0097 3.17266 26.3774C2.88799 26.6501 2.67988 26.6443 2.38834 26.3688C2.26465 26.2526 2.14587 26.1326 2.02513 26.0136C1.82488 25.8148 1.77481 25.594 1.9839 25.3818C2.17532 25.1879 2.39815 25.211 2.61019 25.3674C2.66614 25.4087 2.71817 25.4577 2.83498 25.5556Z" fill="#035948"/>
</svg>
