<svg width="31" height="36" viewBox="0 0 31 36" fill="none" xmlns="http://www.w3.org/2000/svg">
<path d="M26.8084 4.42419C29.4877 4.80935 30.8921 6.86779 30.8565 8.90168C30.8169 11.1596 29.2044 12.8967 26.856 13.2505C26.848 13.4057 26.8312 13.5708 26.8312 13.7358C26.8302 20.1696 26.8263 26.6033 26.8342 33.0371C26.8352 34.0776 26.4954 34.9275 25.6139 35.5308C25.1177 35.8698 24.5551 35.9965 23.9638 35.9965C16.9335 35.9995 9.9031 36.0034 2.87176 35.9946C1.16617 35.9926 0.00434356 34.8253 0.00335309 33.1422C-0.000608789 23.0445 -0.00159926 12.9459 0.00335309 2.84817C0.00434356 1.12674 1.19588 0.00270201 2.9916 0.00171945C9.18006 -0.000245649 15.3695 -0.00122818 21.558 0.00270203C22.5346 0.00368458 23.5161 -0.0198967 24.4878 0.0616551C25.7308 0.165806 26.7282 1.22696 26.8005 2.45515C26.8401 3.11346 26.8084 3.77472 26.8084 4.42419ZM25.9596 4.4291C25.9596 3.94863 25.9606 3.4603 25.9596 2.97296C25.9566 1.59935 25.2167 0.86833 23.8232 0.86833C16.8918 0.867348 9.96055 0.867348 3.02924 0.86833C1.62079 0.86833 0.877945 1.60524 0.877945 2.99752C0.877945 12.997 0.877945 22.9964 0.877945 32.9958C0.877945 34.393 1.61782 35.1319 3.02329 35.1319C9.9546 35.1329 16.8859 35.1329 23.8172 35.1319C25.2128 35.1319 25.9586 34.4019 25.9586 33.0322C25.9596 26.5739 25.9596 20.1165 25.9596 13.6582C25.9596 13.5265 25.9596 13.3939 25.9596 13.2691C23.2338 12.8506 21.8927 10.7508 21.9234 8.79163C21.9551 6.69683 23.4428 4.79166 25.9596 4.4291ZM25.7358 9.34972C25.5347 9.12177 25.3831 8.92722 25.2088 8.75626C25.0147 8.56663 24.7859 8.53715 24.5908 8.7484C24.4155 8.93901 24.4353 9.15124 24.6185 9.33695C24.8948 9.61697 25.1732 9.89504 25.4574 10.1672C25.6446 10.347 25.8695 10.3686 26.0537 10.1908C26.7787 9.49022 27.5008 8.78574 28.1921 8.05275C28.2852 7.9545 28.2664 7.61257 28.1674 7.51824C28.0683 7.42294 27.7999 7.4701 27.6147 7.50252C27.5236 7.51923 27.4522 7.64401 27.373 7.72163C26.85 8.2414 26.3281 8.76019 25.7358 9.34972Z" fill="#035948"/>
<path d="M13.43 16.9948C12.2434 16.9948 11.0568 16.9958 9.86922 16.9948C9.18381 16.9948 9.08774 16.9123 9.13231 16.2226C9.22146 14.8273 9.67608 13.5707 10.6616 12.539C12.2226 10.905 14.572 10.8883 16.1478 12.5075C17.2314 13.6208 17.6721 14.9954 17.7266 16.5095C17.7385 16.8524 17.5602 16.9909 17.1383 16.9929C15.9032 16.9968 14.6671 16.9948 13.43 16.9948Z" fill="#035948"/>
<path d="M15.8843 8.39657C15.8833 9.75053 14.7611 10.8549 13.4002 10.8392C12.0482 10.8235 10.9567 9.73186 10.9547 8.39264C10.9527 7.03279 12.0541 5.93823 13.422 5.93921C14.7938 5.94117 15.8853 7.03083 15.8843 8.39657Z" fill="#035948"/>
<path d="M13.3905 24.3944C10.8529 24.3944 8.31534 24.3944 5.77874 24.3944C5.66781 24.3944 5.5232 24.4347 5.45188 24.3807C5.30034 24.2667 5.10027 24.1125 5.08343 23.9572C5.06957 23.8295 5.27459 23.6565 5.41623 23.5445C5.48655 23.4895 5.63116 23.5219 5.7421 23.5219C10.8668 23.521 15.9905 23.521 21.1152 23.5219C21.2261 23.5219 21.3747 23.4915 21.44 23.5485C21.5748 23.6654 21.754 23.8364 21.7481 23.9778C21.7421 24.1183 21.548 24.2726 21.4044 24.3787C21.3321 24.4328 21.1885 24.3944 21.0775 24.3944C18.5152 24.3944 15.9528 24.3944 13.3905 24.3944Z" fill="#035948"/>
<path d="M13.392 20.4979C10.8544 20.4979 8.31783 20.4979 5.78025 20.4979C5.6812 20.4979 5.58215 20.5038 5.48311 20.4949C5.22063 20.4723 5.03542 20.3043 5.07602 20.0704C5.10376 19.9083 5.29986 19.758 5.4514 19.643C5.52272 19.589 5.66733 19.6263 5.77826 19.6263C10.8772 19.6263 15.9771 19.6263 21.0761 19.6263C21.187 19.6263 21.3346 19.59 21.4019 19.645C21.5475 19.7649 21.7496 19.9378 21.7446 20.0832C21.7407 20.2247 21.5188 20.375 21.3683 20.488C21.3049 20.5352 21.1761 20.4979 21.0771 20.4979C18.5157 20.4979 15.9543 20.4979 13.392 20.4979Z" fill="#035948"/>
<path d="M13.4302 27.4199C14.6802 27.4199 15.9302 27.419 17.1801 27.4199C17.5674 27.4199 17.7913 27.583 17.7903 27.8562C17.7903 28.1293 17.5664 28.2924 17.1781 28.2924C14.6653 28.2934 12.1535 28.2934 9.64068 28.2924C9.25835 28.2924 9.02559 28.1156 9.0563 27.8375C9.09096 27.5231 9.30491 27.418 9.60403 27.419C10.8807 27.4219 12.1555 27.4199 13.4302 27.4199Z" fill="#035948"/>
<path d="M11.9225 32.6991C11.9135 31.8737 12.5811 31.1938 13.4101 31.184C14.2124 31.1732 14.9038 31.8452 14.9137 32.644C14.9246 33.4831 14.2778 34.1582 13.4468 34.1739C12.6197 34.1886 11.9314 33.5244 11.9225 32.6991Z" fill="#035948"/>
<path d="M12.02 2.9267C10.9325 2.9267 9.84595 2.92179 8.75842 2.92965C8.44444 2.93162 8.21465 2.84319 8.18098 2.50715C8.15522 2.24874 8.39392 2.05714 8.74256 2.05714C10.9166 2.05321 13.0907 2.05518 15.2648 2.05518C15.5709 2.05518 15.8086 2.15442 15.8383 2.49241C15.8631 2.77342 15.6451 2.92572 15.243 2.9267C14.1703 2.92769 13.0947 2.9267 12.02 2.9267Z" fill="#035948"/>
<path d="M17.8896 2.92689C17.3824 2.92689 17.1665 2.80211 17.1616 2.50734C17.1566 2.2057 17.4072 2.05537 17.9133 2.05537C17.9629 2.05537 18.0124 2.05439 18.0609 2.05537C18.4522 2.06519 18.6671 2.22437 18.6473 2.51029C18.6225 2.86204 18.3808 2.94261 18.0748 2.92689C18.0124 2.92394 17.951 2.92689 17.8896 2.92689Z" fill="#035948"/>
</svg>
