<svg width="37" height="36" viewBox="0 0 37 36" fill="none" xmlns="http://www.w3.org/2000/svg">
<path d="M23.6284 28.9509C24.5573 30.2147 24.3293 31.3492 23.0091 32.2221C22.9089 32.2887 22.8656 32.5052 22.8666 32.6512C22.8774 33.7171 22.5078 34.6086 21.6811 35.2953C21.1984 35.696 20.643 35.9713 20.0129 35.9772C18.9749 35.986 17.9152 36.0595 16.9027 35.8841C15.4508 35.6324 14.4845 34.3166 14.4855 32.8403C14.4855 32.4729 14.4128 32.2475 14.0638 32.034C13.2017 31.5049 12.7004 30.1941 13.706 28.9529C10.8415 27.0082 9.24123 24.3513 9.23926 20.8519C9.23729 18.1332 10.3048 15.8516 12.2856 13.9951C16.1124 10.4075 22.3338 10.7729 25.8008 14.7504C29.4507 18.9395 28.7892 25.669 23.6284 28.9509ZM18.6662 28.3396C19.7819 28.3396 20.8976 28.3455 22.0133 28.3337C22.1991 28.3318 22.4026 28.2867 22.5668 28.2015C25.5757 26.631 27.3333 23.258 26.9057 19.8947C26.3267 15.3382 22.1067 12.119 17.5171 12.7332C13.6972 13.2446 10.6528 16.4394 10.4208 20.2915C10.2085 23.8066 11.7253 26.4351 14.7677 28.1985C14.9259 28.2906 15.1343 28.3327 15.3201 28.3347C16.4348 28.3455 17.5505 28.3396 18.6662 28.3396Z" fill="#035948"/>
<path d="M20.3121 2.90021C21.0661 2.90021 21.8141 2.89824 22.5612 2.90118C23.0871 2.90314 23.4213 3.11965 23.5619 3.54288C23.7035 3.96708 23.5649 4.34132 23.1431 4.65286C22.6408 5.02416 22.1444 5.40428 21.6264 5.75206C21.3747 5.92057 21.2961 6.0685 21.4131 6.37122C21.6362 6.95022 21.8102 7.5488 21.998 8.14053C22.1572 8.64409 22.0481 9.02911 21.6873 9.2848C21.3207 9.54344 20.9265 9.52581 20.4979 9.21916C19.97 8.84199 19.4392 8.46775 18.9241 8.07391C18.7324 7.92696 18.6027 7.93382 18.413 8.07881C17.8979 8.47167 17.3651 8.84395 16.8362 9.21916C16.4027 9.52679 16.0154 9.54344 15.6478 9.28089C15.287 9.02225 15.1809 8.64115 15.3421 8.13564C15.5347 7.53215 15.7225 6.9267 15.9387 6.33105C16.0292 6.08319 15.9918 5.94114 15.7687 5.78929C15.2329 5.42387 14.7139 5.03297 14.192 4.64796C13.7683 4.33446 13.6316 3.95924 13.7742 3.53798C13.9167 3.11965 14.2549 2.90216 14.7798 2.90118C15.5151 2.89922 16.2504 2.90021 17.0299 2.90021C17.2314 2.2928 17.4329 1.68539 17.6344 1.07701C17.6845 0.927119 17.7268 0.77429 17.7848 0.626358C17.9421 0.223708 18.2852 -0.0202335 18.6862 0.0013195C19.105 0.0238522 19.4078 0.229585 19.5473 0.631255C19.7665 1.26511 19.972 1.90191 20.1843 2.53772C20.2227 2.65234 20.2649 2.76599 20.3121 2.90021Z" fill="#035948"/>
<path d="M8.48846 12.2904C8.08248 12.5833 7.70599 12.8547 7.32852 13.1261C6.8901 13.4425 6.54212 13.4807 6.21969 13.2486C5.88842 13.0105 5.8147 12.6784 5.98181 12.1699C6.10271 11.7996 6.21674 11.4273 6.35141 11.0619C6.42219 10.8689 6.38287 10.7484 6.21183 10.6328C5.84812 10.3849 5.49325 10.1234 5.14134 9.85786C4.79434 9.59629 4.68621 9.27985 4.80614 8.935C4.93196 8.57448 5.19344 8.4001 5.62694 8.39716C6.06831 8.39324 6.50968 8.38834 6.95006 8.39912C7.13781 8.40402 7.23316 8.34915 7.28821 8.15713C7.41207 7.72411 7.5605 7.29795 7.70894 6.87277C7.8495 6.47012 8.11688 6.27222 8.4914 6.27418C8.86986 6.27614 9.11659 6.46326 9.26404 6.88061C9.40658 7.28228 9.55599 7.68296 9.66511 8.09443C9.73195 8.34817 9.85679 8.41283 10.1035 8.40107C10.5311 8.3805 10.9617 8.39911 11.3903 8.3952C11.7668 8.39128 12.0214 8.56958 12.156 8.91051C12.2877 9.24458 12.1885 9.58747 11.8828 9.82456C11.5249 10.1018 11.1632 10.3751 10.7857 10.623C10.5813 10.7572 10.5557 10.8846 10.6383 11.103C10.7887 11.5008 10.9116 11.9103 11.0364 12.3179C11.1593 12.7205 11.059 13.0448 10.7435 13.2534C10.422 13.467 10.0966 13.4445 9.78602 13.2231C9.35743 12.9184 8.93277 12.6098 8.48846 12.2904Z" fill="#035948"/>
<path d="M28.851 12.2924C28.4215 12.6 28.0165 12.8949 27.6066 13.1829C27.234 13.4445 26.888 13.4651 26.5901 13.2505C26.2628 13.0154 26.1792 12.7039 26.3247 12.2414C26.4486 11.8466 26.5646 11.4489 26.711 11.0619C26.7858 10.865 26.7563 10.7553 26.5813 10.6377C26.2156 10.3918 25.8627 10.1283 25.5098 9.86474C25.1717 9.61296 25.0567 9.29064 25.1648 8.93698C25.269 8.59703 25.5639 8.40011 25.9876 8.39521C26.4161 8.39129 26.8457 8.38346 27.2743 8.39815C27.4906 8.40599 27.6007 8.34623 27.6626 8.12482C27.7845 7.6918 27.9408 7.2676 28.0853 6.84143C28.2082 6.47699 28.4588 6.27714 28.8501 6.2742C29.2452 6.27126 29.4929 6.48777 29.6188 6.84045C29.7613 7.24212 29.8999 7.64673 30.009 8.0582C30.0818 8.33447 30.2233 8.41774 30.5025 8.40109C30.9173 8.37562 31.3351 8.39913 31.7519 8.39423C32.1461 8.38933 32.4036 8.58037 32.5304 8.93991C32.6562 9.29554 32.5383 9.59336 32.2512 9.81575C31.8836 10.0999 31.5091 10.3761 31.1257 10.6377C30.9517 10.7562 30.9222 10.8748 30.99 11.0668C31.1434 11.5028 31.2741 11.9475 31.4177 12.3864C31.5327 12.7362 31.4108 13.0174 31.1404 13.229C30.8514 13.4553 30.5221 13.469 30.2184 13.2642C29.7613 12.9576 29.3209 12.6274 28.851 12.2924Z" fill="#035948"/>
<path d="M7.10281 17.8246C6.96912 18.0156 6.86197 18.2351 6.69486 18.3889C6.45403 18.6113 6.17387 18.7935 5.89961 18.9767C5.72071 19.0962 5.65878 19.2177 5.74528 19.4313C5.86324 19.7242 5.9527 20.0289 6.04608 20.3306C6.15126 20.6725 6.11587 20.985 5.81213 21.2202C5.52411 21.4426 5.22626 21.4288 4.86648 21.1859C4.52342 20.9547 4.18428 20.5491 3.83728 20.5432C3.51191 20.5373 3.17965 20.9547 2.84838 21.1839C2.49254 21.4288 2.18781 21.4435 1.90372 21.2182C1.61177 20.987 1.53018 20.6941 1.66092 20.3385C1.75332 20.0877 1.79756 19.8153 1.9165 19.5782C2.08459 19.2441 1.97843 19.0521 1.68254 18.8777C1.44073 18.7357 1.22348 18.5535 0.998377 18.385C0.716256 18.1724 0.595347 17.8971 0.709375 17.5513C0.82242 17.2103 1.07014 17.0428 1.4309 17.0428C1.78576 17.0428 2.14259 17.0595 2.49549 17.031C2.60263 17.0222 2.75008 16.9125 2.79333 16.8126C2.92702 16.5001 3.02336 16.1719 3.12559 15.8476C3.23667 15.4949 3.45883 15.2862 3.84023 15.2764C4.21082 15.2676 4.44183 15.4498 4.58829 15.8554C4.72788 16.2434 4.75933 16.7822 5.03556 16.9781C5.31473 17.176 5.8367 17.031 6.25251 17.0428C6.73615 17.0585 7.03891 17.3436 7.10281 17.8246Z" fill="#035948"/>
<path d="M35.2924 19.159C35.428 19.5822 35.5529 19.9888 35.6895 20.3915C35.8085 20.7422 35.6993 21.0175 35.4192 21.2291C35.144 21.4368 34.8481 21.4309 34.5659 21.2379C34.2632 21.0302 33.9781 20.797 33.6655 20.606C33.5731 20.5492 33.3863 20.5511 33.2939 20.608C32.9922 20.7921 32.714 21.0155 32.425 21.2212C32.134 21.428 31.8342 21.4427 31.5383 21.235C31.2365 21.0224 31.1825 20.7177 31.2749 20.3885C31.3663 20.0613 31.4783 19.738 31.5983 19.4196C31.671 19.2266 31.6268 19.1042 31.4557 18.9905C31.1716 18.7995 30.8984 18.5928 30.6241 18.388C30.339 18.1764 30.2221 17.8952 30.3351 17.5533C30.4472 17.2153 30.6939 17.0439 31.0586 17.0478C31.4017 17.0517 31.7447 17.036 32.0878 17.0517C32.2962 17.0605 32.3916 16.988 32.4476 16.7872C32.5419 16.4482 32.6688 16.1181 32.7828 15.784C32.8939 15.4578 33.1239 15.2873 33.4689 15.2814C33.8356 15.2746 34.0695 15.4646 34.1875 15.7967C34.3025 16.1171 34.4116 16.4414 34.504 16.7686C34.562 16.9763 34.6613 17.0674 34.8894 17.0537C35.2187 17.0341 35.5509 17.0537 35.8812 17.0478C36.242 17.0419 36.4985 17.1977 36.6175 17.5357C36.7433 17.8913 36.6224 18.1813 36.3255 18.4017C35.9854 18.6515 35.6413 18.9023 35.2924 19.159Z" fill="#035948"/>
</svg>
