<svg width="37" height="36" viewBox="0 0 37 36" fill="none" xmlns="http://www.w3.org/2000/svg">
<path d="M30.3889 25.0777C30.9026 25.5848 31.4013 26.0665 31.8896 26.5595C32.8906 27.57 32.8935 28.8973 31.8962 29.9106C31.3513 30.4639 30.8037 31.0144 30.2484 31.5574C29.2351 32.549 27.9013 32.5387 26.8936 31.5385C26.4016 31.0502 25.9086 30.5638 25.4005 30.0624C24.3306 30.6732 23.2041 31.1596 22.0127 31.4923C21.942 31.5121 21.875 31.6865 21.8731 31.7911C21.8599 32.4378 21.8694 33.0844 21.8656 33.732C21.8581 35.0093 20.8843 35.9887 19.6136 35.9962C18.7549 36.0009 17.8962 36.0019 17.0374 35.9953C15.829 35.9859 14.8373 35.0102 14.8147 33.8037C14.8024 33.1335 14.81 32.4632 14.8119 31.7921C14.8119 31.6347 14.8081 31.5281 14.6064 31.4546C13.4865 31.0436 12.378 30.6053 11.1912 30.1472C10.8151 30.5214 10.3494 30.9824 9.88661 31.4461C8.75828 32.5782 7.46405 32.5801 6.33006 31.449C5.80501 30.9258 5.27808 30.4055 4.75869 29.8757C3.79437 28.8925 3.80286 27.5587 4.77754 26.5784C5.27431 26.0788 5.7805 25.5877 6.21694 25.1569C5.78427 24.0832 5.36291 23.0822 4.97643 22.0669C4.77377 21.5353 4.80205 21.5325 4.22327 21.5221C3.51912 21.5108 2.80461 21.5551 2.1146 21.4476C1.06451 21.2836 0.344336 20.3532 0.337738 19.2984C0.332082 18.4284 0.332082 17.5574 0.337738 16.6873C0.346222 15.461 1.3341 14.4806 2.56518 14.4721C3.21183 14.4674 3.85941 14.4637 4.50606 14.4759C4.72475 14.4797 4.81525 14.4231 4.89726 14.1969C5.29882 13.0997 5.7362 12.0156 6.19526 10.8383C5.75788 10.4028 5.21869 9.88151 4.69836 9.34421C4.06962 8.69568 3.89147 7.91707 4.1686 7.06775C4.27041 6.75574 4.47024 6.45127 4.69459 6.20713C5.26771 5.58499 5.87382 4.99113 6.47899 4.39916C7.42634 3.47349 8.78185 3.47726 9.73485 4.40293C10.2486 4.90253 10.7529 5.41249 11.2374 5.89323C12.0462 5.53786 12.8361 5.18532 13.6308 4.84408C13.856 4.74699 14.0908 4.64142 14.3302 4.61502C14.7619 4.56789 14.8307 4.3426 14.8213 3.95424C14.8043 3.22747 14.7779 2.48844 14.8882 1.77581C15.0494 0.728545 15.9836 0.0112005 17.0412 0.00460212C17.9122 -0.00105368 18.7822 -0.00199632 19.6532 0.00460212C20.8645 0.0140284 21.8505 0.993424 21.8647 2.20094C21.8722 2.87115 21.8581 3.54231 21.875 4.21158C21.8779 4.31621 21.9721 4.48682 22.0579 4.51228C23.2239 4.85162 24.3325 5.32011 25.3986 5.93848C25.869 5.4747 26.3375 5.01753 26.8003 4.55375C27.939 3.41505 29.2172 3.40939 30.3521 4.54244C30.8602 5.04958 31.3692 5.55483 31.8735 6.06479C32.9038 7.1064 32.902 8.42043 31.8688 9.4677C31.39 9.95315 30.9045 10.432 30.4473 10.8892C30.8131 11.7253 31.176 12.536 31.521 13.3532C31.6341 13.6219 31.7293 13.9047 31.784 14.1903C31.8311 14.4373 31.9546 14.4769 32.1724 14.4731C32.819 14.4618 33.4666 14.4655 34.1132 14.4703C35.3424 14.4797 36.3265 15.4619 36.335 16.6911C36.3416 17.5611 36.3416 18.4321 36.335 19.3022C36.3256 20.5276 35.3396 21.5089 34.1066 21.5212C33.4477 21.5278 32.7888 21.5146 32.1299 21.5306C32.0234 21.5334 31.849 21.6239 31.8245 21.7078C31.488 22.8776 31.0233 23.988 30.3889 25.0777ZM20.7392 3.59886C20.7392 3.18693 20.742 2.77594 20.7382 2.36401C20.7316 1.60708 20.2603 1.13576 19.5015 1.13199C18.7483 1.12822 17.9961 1.13011 17.2429 1.13105C16.4059 1.13293 15.9534 1.5788 15.9487 2.41303C15.9449 3.16619 15.9487 3.91842 15.9477 4.67158C15.9468 5.28712 15.861 5.40872 15.2709 5.54823C13.9814 5.85458 12.7786 6.36549 11.6484 7.05456C11.2129 7.32038 11.0121 7.29493 10.6539 6.93861C10.0865 6.37492 9.52558 5.80463 8.95529 5.24376C8.41422 4.71117 7.78548 4.71306 7.24535 5.24847C6.67694 5.81122 6.11325 6.37869 5.55427 6.95087C5.05184 7.4646 5.05939 8.08486 5.57218 8.6033C6.15096 9.18868 6.73916 9.76557 7.31888 10.35C7.61864 10.6516 7.6554 10.8779 7.43765 11.2304C6.69674 12.4285 6.16793 13.7124 5.84178 15.082C5.7494 15.4713 5.57124 15.5986 5.16402 15.5995C4.36373 15.6024 3.56437 15.5995 2.76408 15.6005C1.92513 15.6024 1.46984 16.0501 1.46795 16.8787C1.46607 17.6196 1.46607 18.3605 1.46795 19.1014C1.46984 19.9309 1.92136 20.3853 2.75653 20.39C3.54457 20.3938 4.33262 20.389 5.12066 20.3919C5.60612 20.3938 5.73997 20.4946 5.85497 20.9688C6.17829 22.3017 6.69297 23.5544 7.41126 24.7233C7.65823 25.1258 7.63183 25.3303 7.30474 25.6621C6.72596 26.2475 6.1387 26.8253 5.56181 27.4126C5.05373 27.9292 5.05468 28.5475 5.5637 29.065C6.11608 29.6269 6.67506 30.183 7.23499 30.7373C7.7902 31.2859 8.41611 31.2887 8.97038 30.742C9.54821 30.1717 10.1166 29.5929 10.6945 29.0226C10.9942 28.7266 11.2261 28.6918 11.5758 28.9057C12.7664 29.6344 14.0399 30.1585 15.3944 30.4912C15.8403 30.6006 15.9459 30.7448 15.9477 31.2114C15.9506 31.9995 15.9459 32.7875 15.9496 33.5755C15.9534 34.4088 16.4087 34.867 17.2316 34.8688C17.9848 34.8707 18.737 34.8717 19.4902 34.8688C20.2688 34.8651 20.7363 34.3947 20.7392 33.6123C20.742 32.8007 20.7382 31.9891 20.7401 31.1775C20.741 30.7533 20.8664 30.5912 21.2878 30.4894C22.6329 30.1642 23.896 29.6438 25.079 28.9265C25.4976 28.6729 25.672 28.6955 26.0122 29.0349C26.5873 29.6071 27.1566 30.1858 27.7335 30.7571C28.2623 31.2812 28.8863 31.2878 29.4151 30.7693C29.9779 30.2179 30.535 29.6598 31.0874 29.098C31.6379 28.5381 31.6332 27.9245 31.0798 27.3636C30.5096 26.7867 29.9308 26.2174 29.3605 25.6395C29.0664 25.3426 29.0353 25.1107 29.2521 24.7582C29.9845 23.5695 30.5039 22.2941 30.8338 20.9386C30.9375 20.5144 31.0902 20.3985 31.5267 20.3966C32.3505 20.3938 33.1734 20.4013 33.9973 20.3938C34.7344 20.3862 35.2048 19.9092 35.2095 19.1721C35.2142 18.4076 35.2123 17.6432 35.2105 16.8787C35.2086 16.0567 34.7467 15.6014 33.9143 15.6005C33.1263 15.5995 32.3383 15.6014 31.5493 15.5995C31.0987 15.5986 30.9375 15.477 30.8319 15.0415C30.5086 13.7086 29.9968 12.4549 29.2804 11.2851C29.0277 10.8722 29.0579 10.6705 29.4038 10.3217C29.9666 9.75332 30.5359 9.19151 31.0968 8.62121C31.6313 8.07731 31.6322 7.45706 31.0978 6.91222C30.5623 6.36643 30.0194 5.82819 29.4764 5.28995C28.8788 4.69703 28.2849 4.69609 27.6939 5.28429C27.1274 5.84893 26.5656 6.41828 25.9981 6.98197C25.688 7.29022 25.4797 7.32509 25.1205 7.10357C23.9111 6.35889 22.6197 5.81782 21.235 5.49921C20.9107 5.42474 20.7326 5.22114 20.7392 4.86953C20.7448 4.44629 20.7392 4.02305 20.7392 3.59886Z" fill="#035948"/>
<path d="M8.95459 17.9863C8.96025 12.832 13.1842 8.6175 18.3423 8.61939C23.5136 8.62127 27.7337 12.8565 27.7205 18.0306C27.7073 23.1821 23.474 27.391 18.3149 27.3806C13.1606 27.3702 8.94988 23.1435 8.95459 17.9863ZM26.58 18.0033C26.5856 13.4843 22.8848 9.77694 18.3498 9.75997C13.8365 9.743 10.1216 13.4419 10.0952 17.9788C10.0688 22.4978 13.812 26.2485 18.3423 26.241C22.8698 26.2334 26.5743 22.5289 26.58 18.0033Z" fill="#035948"/>
<path d="M21.4102 18.0276C21.4102 19.3436 21.4092 20.6604 21.4111 21.9763C21.4111 22.2535 21.3989 22.5249 21.1179 22.6824C20.8267 22.8454 20.5825 22.7201 20.3365 22.5551C19.7511 22.163 19.1544 21.7887 18.5719 21.3919C18.3994 21.275 18.275 21.2797 18.1053 21.3947C17.5133 21.7972 16.9091 22.1818 16.3115 22.5768C16.0749 22.7333 15.8335 22.8379 15.5574 22.6833C15.2925 22.5353 15.2651 22.2799 15.2651 22.0121C15.2661 19.3322 15.2642 16.6533 15.267 13.9734C15.268 13.4248 15.4697 13.223 16.0089 13.2221C17.5605 13.2193 19.112 13.2193 20.6636 13.2221C21.2028 13.223 21.4055 13.4257 21.4064 13.9734C21.413 15.3242 21.4102 16.6759 21.4102 18.0276Z" fill="#035948"/>
</svg>
